# xmcd CD database file
#
# Track frame offsets:
#	150
#	23361
#	38456
#	64244
#	92451
#	134449
#	164806
#	201172
#	252272
#
# Disc length: 3603 seconds
#
# Revision: 0
# Processed by: cddbd v1.5.2PL0 Copyright (c) Steve Scherf et al.
# Submitted via: CDex 1.51
#
DISCID=710e1109
DTITLE=Hampton Hawes - Seven Classic Albums CD4
DYEAR=1958
DGENRE=Jazz
TTITLE0=Up Blues
TTITLE1=Like Someone In Love
TTITLE2=Love Is Just Around The Corner
TTITLE3=Hip
TTITLE4=Wrap Your Troubles In Dreams
TTITLE5=Crazeology (Little Bennie)
TTITLE6=Number Game
TTITLE7=For Real
TTITLE8=I Love You
EXTD=YEAR: 1958
EXTT0=
EXTT1=
EXTT2=
EXTT3=
EXTT4=
EXTT5=
EXTT6=
EXTT7=
EXTT8=
PLAYORDER=
